<svg xmlns="http://www.w3.org/2000/svg" width="24" height="24" fill="none"><path stroke="#000" stroke-linecap="round" stroke-linejoin="round" stroke-width="1.333" d="M3 9h18v11a1 1 0 0 1-1 1H4a1 1 0 0 1-1-1V9ZM4 4h16a1 1 0 0 1 1 1v4H3V5a1 1 0 0 1 1-1v0ZM16 3v3M8 3v3"/><circle cx="7" cy="12" r="1" fill="#000"/><circle cx="7" cy="16" r="1" fill="#000"/><circle cx="12" cy="12" r="1" fill="#000"/><circle cx="12" cy="16" r="1" fill="#000"/><circle cx="17" cy="12" r="1" fill="#000"/><circle cx="17" cy="16" r="1" fill="#000"/></svg>