<svg xmlns="http://www.w3.org/2000/svg" width="23" height="23" fill="none"><g fill="#000" clip-path="url(#a)"><path d="M16.319 0H6.68A6.689 6.689 0 0 0 0 6.681v9.638A6.689 6.689 0 0 0 6.681 23h9.638A6.689 6.689 0 0 0 23 16.319V6.68A6.689 6.689 0 0 0 16.319 0Zm4.884 16.319a4.89 4.89 0 0 1-4.884 4.884H6.68a4.89 4.89 0 0 1-4.884-4.884V6.68A4.89 4.89 0 0 1 6.68 1.797h9.638a4.89 4.89 0 0 1 4.884 4.884v9.638Z"/><path d="M11.5 5.3c-3.418 0-6.2 2.782-6.2 6.2s2.782 6.2 6.2 6.2 6.2-2.782 6.2-6.2-2.782-6.2-6.2-6.2Zm0 10.602A4.407 4.407 0 0 1 7.098 11.5 4.407 4.407 0 0 1 11.5 7.098a4.407 4.407 0 0 1 4.402 4.402 4.407 4.407 0 0 1-4.402 4.402ZM17.79 6.11a.898.898 0 1 0 0-1.797.898.898 0 0 0 0 1.796Z"/></g><defs><clipPath id="a"><path fill="#fff" d="M0 0h23v23H0z"/></clipPath></defs></svg>