<svg xmlns="http://www.w3.org/2000/svg" width="26" height="26" fill="none"><path fill="#212121" d="M25 13c0 6.633-5.368 12-12 12-6.633 0-12-5.368-12-12C1 6.367 6.368 1 13 1c6.633 0 12 5.368 12 12Zm-1.875 0A10.12 10.12 0 0 0 13 2.875 10.12 10.12 0 0 0 2.875 13 10.12 10.12 0 0 0 13 23.125 10.12 10.12 0 0 0 23.125 13Z"/><g clip-path="url(#a)"><path fill="#000" d="M7.819 17.09h1.909v1.637A.264.264 0 0 0 10 19h1.423a.269.269 0 0 0 .273-.273v-1.636H16c.08 0 .145-.026.197-.077a.265.265 0 0 0 .076-.196v-1.09a.265.265 0 0 0-.076-.197.265.265 0 0 0-.197-.077h-4.304V14.45h2.898c1.136 0 2.064-.347 2.783-1.04.718-.693 1.078-1.588 1.078-2.685 0-1.096-.36-1.99-1.078-2.684C16.658 7.347 15.73 7 14.594 7h-4.593a.266.266 0 0 0-.197.077.266.266 0 0 0-.076.196v5.36h-1.91a.27.27 0 0 0-.273.273v1.27a.265.265 0 0 0 .273.273h1.91v1.005h-1.91a.265.265 0 0 0-.195.077.265.265 0 0 0-.077.196v1.091c0 .08.025.145.077.196a.265.265 0 0 0 .196.077Zm3.877-8.274h2.728c.602 0 1.088.176 1.457.528.37.352.554.813.554 1.38 0 .569-.185 1.03-.554 1.381-.37.353-.855.529-1.457.529h-2.728V8.816Z"/></g><defs><clipPath id="a"><path fill="#fff" d="M7 7h12v12H7z"/></clipPath></defs></svg>