<svg xmlns="http://www.w3.org/2000/svg" width="26" height="26" fill="none"><path fill="#198580" stroke="#198580" stroke-width=".3" d="m16.873 9.086-5.52 5.52-2.226-2.224A1.087 1.087 0 1 0 7.59 13.92l2.994 2.994a1.088 1.088 0 0 0 1.538 0l6.29-6.29a1.087 1.087 0 1 0-1.538-1.538ZM13 25.15c6.715 0 12.15-5.434 12.15-12.15C25.15 6.285 19.716.85 13 .85 6.285.85.85 6.284.85 13c0 6.715 5.434 12.15 12.15 12.15Zm0-22.125A9.97 9.97 0 0 1 22.975 13 9.97 9.97 0 0 1 13 22.975 9.97 9.97 0 0 1 3.025 13 9.97 9.97 0 0 1 13 3.025Z"/></svg>