<svg width="16" height="8" viewBox="0 0 16 8" fill="none" xmlns="http://www.w3.org/2000/svg">
<path d="M14.9271 4.75642C14.9269 4.75659 14.9268 4.75679 14.9266 4.75696L11.9362 7.73287C11.7122 7.9558 11.3499 7.95497 11.1269 7.73092C10.9039 7.5069 10.9048 7.14455 11.1288 6.92159L13.1365 4.92361L1.01663 4.92361C0.70055 4.92361 0.444336 4.6674 0.444336 4.35132C0.444336 4.03525 0.70055 3.77903 1.01663 3.77903L13.1365 3.77903L11.1288 1.78106C10.9048 1.55809 10.904 1.19575 11.1269 0.971728C11.3499 0.747648 11.7123 0.746875 11.9363 0.969782L14.9266 3.94569C14.9268 3.94586 14.9269 3.94606 14.9271 3.94623C15.1513 4.16994 15.1505 4.53345 14.9271 4.75642Z" fill="white"/>
</svg>
