<svg xmlns="http://www.w3.org/2000/svg" width="101" height="14" fill="none"><path fill="#275553" d="M.607 14V.73h3.747c1.154 0 2.175.254 3.062.765a5.15 5.15 0 0 1 2.05 2.178c.487.942.733 2.024.74 3.245v.848c0 1.251-.244 2.348-.73 3.29a5.061 5.061 0 0 1-2.07 2.17c-.892.504-1.934.762-3.125.774H.607Zm1.75-11.83v10.4H4.2c1.349 0 2.397-.42 3.144-1.259.754-.838 1.13-2.032 1.13-3.582v-.775c0-1.506-.355-2.676-1.066-3.509-.705-.838-1.708-1.264-3.008-1.276H2.357Zm15.368 6.462h-3.118V14h-1.759V.73h4.394c1.494 0 2.643.34 3.445 1.02.808.68 1.212 1.671 1.212 2.971 0 .827-.225 1.547-.674 2.16-.444.614-1.064 1.073-1.86 1.377l3.117 5.633V14h-1.877l-2.88-5.368ZM14.607 7.2h2.69c.868 0 1.558-.225 2.068-.675.517-.45.775-1.051.775-1.805 0-.82-.246-1.449-.738-1.886-.486-.438-1.191-.66-2.115-.666h-2.68v5.032Zm17.254.665H26.11v4.703h6.681V14H24.36V.73h8.34v1.44h-6.59v4.265h5.751v1.43Zm10.436 2.67h-5.56L35.49 14h-1.805L38.752.73h1.531L45.36 14h-1.796l-1.267-3.463Zm-5.03-1.44h4.511l-2.26-6.207-2.252 6.207ZM49.406.73l4.339 10.828L58.084.73h2.27V14h-1.75V8.832l.164-5.578L54.41 14h-1.34L48.723 3.281l.174 5.551V14h-1.75V.73h2.26Zm17.409 7.1-1.623 1.687V14h-1.75V.73h1.75v6.562L71.091.729h2.114l-5.223 5.86L73.615 14H71.52l-4.703-6.17Zm15.659 2.708h-5.56L75.666 14h-1.805L78.93.73h1.531L85.538 14h-1.796l-1.267-3.463Zm-5.032-1.44h4.512l-2.26-6.208-2.252 6.207ZM89.584.728l4.339 10.828L98.26.73h2.27V14h-1.75V8.832l.164-5.578L94.588 14h-1.34L88.901 3.281l.172 5.551V14h-1.75V.73h2.261Z"/></svg>