<svg xmlns="http://www.w3.org/2000/svg" width="48" height="15" fill="none"><path fill="#275553" d="M11.04 2.178H6.775v11.83H5.034V2.179H.777V.738H11.04v1.44Zm11.922 5.624c0 1.3-.218 2.436-.656 3.409-.438.966-1.057 1.704-1.86 2.214-.801.51-1.737.766-2.807.766-1.045 0-1.971-.255-2.78-.766-.808-.516-1.437-1.248-1.886-2.196-.444-.954-.672-2.057-.684-3.309v-.957c0-1.276.222-2.403.665-3.381.444-.979 1.07-1.726 1.878-2.243.814-.522 1.744-.783 2.79-.783 1.063 0 1.998.258 2.806.774.815.51 1.44 1.255 1.878 2.233.438.973.656 2.106.656 3.4v.839Zm-1.74-.857c0-1.574-.317-2.78-.949-3.619-.631-.844-1.516-1.267-2.652-1.267-1.106 0-1.978.423-2.616 1.267-.632.839-.957 2.006-.975 3.5v.976c0 1.525.319 2.725.957 3.6.644.869 1.528 1.303 2.652 1.303 1.13 0 2.006-.41 2.625-1.23.62-.826.94-2.008.957-3.546v-.984ZM34.93.738V9.76c-.006 1.252-.401 2.276-1.185 3.072-.778.796-1.835 1.242-3.172 1.34l-.465.018c-1.452 0-2.61-.392-3.473-1.176-.862-.784-1.3-1.862-1.312-3.235V.738h1.732v8.987c0 .96.264 1.707.793 2.242.528.529 1.282.793 2.26.793.99 0 1.747-.264 2.27-.793.528-.529.793-1.273.793-2.233V.738h1.759Zm7.629 7.902h-3.117v5.369h-1.76V.738h4.394c1.494 0 2.643.34 3.445 1.02.808.681 1.212 1.672 1.212 2.972 0 .826-.225 1.546-.674 2.16-.444.614-1.064 1.073-1.86 1.377l3.117 5.632v.11H45.44l-2.88-5.369Zm-3.117-1.43h2.688c.87 0 1.559-.226 2.07-.675.516-.45.774-1.051.774-1.805 0-.82-.246-1.45-.738-1.887-.486-.437-1.191-.659-2.115-.665h-2.68v5.031Z"/></svg>