<svg width="16" height="8" viewBox="0 0 16 8" fill="none" xmlns="http://www.w3.org/2000/svg">
<path d="M1.07291 4.63449C1.07309 4.63467 1.07323 4.63487 1.07343 4.63504L4.06375 7.61094C4.28778 7.83388 4.65012 7.83305 4.87311 7.60899C5.09608 7.38497 5.09522 7.02263 4.8712 6.79966L2.86349 4.80169L14.9834 4.80169C15.2994 4.80169 15.5557 4.54547 15.5557 4.2294C15.5557 3.91332 15.2994 3.65711 14.9834 3.65711L2.86352 3.65711L4.87117 1.65913C5.09519 1.43617 5.09605 1.07382 4.87309 0.849802C4.65009 0.625722 4.28772 0.62495 4.06372 0.847857L1.0734 3.82376C1.07323 3.82393 1.07309 3.82413 1.07289 3.8243C0.848748 4.04801 0.849463 4.41153 1.07291 4.63449Z" fill="#212121"/>
</svg>
