<svg width="18" height="18" viewBox="0 0 18 18" fill="none" xmlns="http://www.w3.org/2000/svg">
<path d="M16.7744 0.194881C16.774 0.194881 16.7736 0.194816 16.7731 0.19485L9.86219 0.225407C9.34446 0.227705 8.92654 0.649228 8.9288 1.16706C8.93107 1.68482 9.35262 2.10271 9.87039 2.10044L14.5103 2.07987L0.499417 16.1471C0.134025 16.5139 0.135215 17.1075 0.502074 17.4729C0.868934 17.8383 1.4625 17.8371 1.8279 17.4702L15.8388 3.40307L15.8369 8.04301C15.8367 8.56078 16.2563 8.98065 16.774 8.98084C17.2919 8.98106 17.7117 8.56136 17.7119 8.04369L17.7148 1.13267C17.7148 1.13228 17.7147 1.13188 17.7148 1.13145C17.7142 0.612687 17.2915 0.193281 16.7744 0.194881Z" fill="#212121"/>
</svg>
