<svg width="16" height="8" viewBox="0 0 16 8" fill="none" xmlns="http://www.w3.org/2000/svg">
<path d="M1.07291 4.75642C1.07309 4.75659 1.07323 4.75679 1.07343 4.75696L4.06375 7.73287C4.28778 7.9558 4.65012 7.95497 4.87311 7.73092C5.09608 7.5069 5.09522 7.14455 4.8712 6.92159L2.86349 4.92361L14.9834 4.92361C15.2994 4.92361 15.5557 4.6674 15.5557 4.35132C15.5557 4.03525 15.2994 3.77903 14.9834 3.77903L2.86352 3.77903L4.87117 1.78106C5.09519 1.55809 5.09605 1.19575 4.87309 0.971728C4.65009 0.747648 4.28772 0.746875 4.06372 0.969782L1.0734 3.94569C1.07323 3.94586 1.07309 3.94606 1.07289 3.94623C0.848748 4.16994 0.849463 4.53345 1.07291 4.75642Z" fill="white"/>
</svg>
