<svg xmlns="http://www.w3.org/2000/svg" width="754" height="6889" fill="none"><path stroke="#6C6C6C" stroke-dasharray="3 8" stroke-width="2" d="M28.006 1c-8.833 8.5-26.6 31.4-27 55-.4 23.6 17.834 66.5 27 85 8.5 20.5 24.5 71.5 20.5 111.5s-21 183-29 249.5c-.666 18.667 5.6 69.3 36 122.5S34.5 820.5 17.007 891c-4 17.833-7.6 66.1 10 116.5 17.6 50.4 17.667 116 15.5 142.5-3.833 26.5 6 99.5 76.001 179.5 70 80 168.167 149 208.5 173.5 45 17 140.8 65 164 121 23.2 56-13.333 141.67-34.5 177.5 1.167 40 28.1 135 126.5 195s139.667 130.33 148 158c5.5 31-14.782 110.84 0 204.5 13.493 85.5-7.507 182-26.5 182-48 0 24.493 148-48 177.5C597.636 2742.46 593 2900.5 567 2952c-96 139-261.293-33.7-340.493-58.5-79.2-24.8-149 61-174 107-11.5 51.33-51.256 174.54-36 249C33 3330 22 3390.5 40.507 3399 63.5 3433.5 38.72 3517.03 19 3561.5c-23.507 53-2.326 146 21.507 175 8.166 5.17-23.619 83.84-30.507 96-17 30 72.5 39.5 103 69.5 10 40 140.6 43.2 223 0s115-12.33 125-12.5c28 .17 82.2-121.5 111-77.5 28.8 44 95.84 25.17 108.507 18 24.167-4 68.9 9.9 54.5 97.5-14.4 87.6-4.507 136.5 2.493 157.5 7.776 23.33 34.307 71.8-10.493 123-44.8 51.2-53.333 111.67-52 135.5.333 20.5-16.2 60.6-85 57-68.8-3.6-137.333-20.17-163-28-21-2.67-75.7 3.2-126.5 48s-127.5 41.67-159.5 34.5c-20.5-6-66.2-7.5-85 34.5-18.8 42-28.833 133.83-31.5 174.5-.5 6 1.8 24.9 15 52.5s-6.007 79.5-13.007 99c-12 31.33-42.4 101.7-10 152.5s24 109 19 132.5c-6.667 17.5 2.607 62-24.993 98-27.6 36 15.5 130.33 40.5 173 2.833 21 3.6 70.6-16 101C15.407 5502.9 15.5 5609 29 5660c2.833 29.17-18.538 112.94 6.007 194C61.5 5941.5 31 6044.5 15.5 6118-24 6234 278.6 6292.7 315 6355.5c36.4 62.8 199.674 20.67 210.007 39 9.167 13.17 37.4 41.6 77 50 39.6 8.4-5.34 146.33 13.493 158.5 2 21.67-10.8 65.2-78 66-84 1-120.5 16-118 28s69.5 8.5 58.5 31.5-107.5 47.5-107.5 67c0 15.6 26 31.83 39 38 7 2.5 19.4 16.9 13 54.5"/></svg>