<svg xmlns="http://www.w3.org/2000/svg" width="32" height="32" fill="none"><g fill="#313131" clip-path="url(#a)" opacity=".8"><path d="M29.838 31.135H2.163a1.297 1.297 0 0 1-1.298-1.297v-19.17a.432.432 0 0 1 .433-.432h29.405a.432.432 0 0 1 .433.432v19.17a1.297 1.297 0 0 1-1.298 1.297ZM1.73 11.1v18.738a.432.432 0 0 0 .433.432h27.675a.433.433 0 0 0 .433-.432V11.1H1.73Z"/><path d="M1.298 11.1a.432.432 0 0 1-.433-.432V5.19a1.297 1.297 0 0 1 1.298-1.297h4.505a.432.432 0 1 1 0 .865H2.163a.432.432 0 0 0-.433.432v5.48a.432.432 0 0 1-.432.432ZM30.703 11.1a.432.432 0 0 1-.433-.432V5.19a.432.432 0 0 0-.432-.432h-4.506a.432.432 0 0 1 0-.865h4.506a1.297 1.297 0 0 1 1.297 1.297v5.48a.433.433 0 0 1-.432.432ZM22.236 4.757H9.764a.432.432 0 0 1 0-.865h12.472a.432.432 0 1 1 0 .865Z"/><path d="M1.298 11.1a.432.432 0 0 1-.433-.432V5.19a1.297 1.297 0 0 1 1.298-1.297h4.505a.432.432 0 1 1 0 .865H2.163a.432.432 0 0 0-.433.432v5.48a.432.432 0 0 1-.432.432ZM30.703 11.1a.432.432 0 0 1-.433-.432V5.19a.432.432 0 0 0-.432-.432h-4.506a.432.432 0 0 1 0-.865h4.506a1.297 1.297 0 0 1 1.297 1.297v5.48a.433.433 0 0 1-.432.432ZM22.236 4.757H9.764a.432.432 0 0 1 0-.865h12.472a.432.432 0 1 1 0 .865Z"/><path d="M23.784 7.779a1.984 1.984 0 0 1-1.982-1.982V2.854a1.982 1.982 0 0 1 3.963 0v2.943a1.984 1.984 0 0 1-1.981 1.982Zm0-6.042a1.118 1.118 0 0 0-1.117 1.117v2.943a1.118 1.118 0 0 0 2.234 0V2.854a1.119 1.119 0 0 0-1.117-1.117ZM8.216 7.779a1.984 1.984 0 0 1-1.982-1.982V2.854a1.982 1.982 0 1 1 3.964 0v2.943A1.984 1.984 0 0 1 8.216 7.78Zm0-6.042A1.118 1.118 0 0 0 7.1 2.854v2.943a1.117 1.117 0 1 0 2.234 0V2.854a1.118 1.118 0 0 0-1.117-1.117ZM26.486 17.226h-2.162a.865.865 0 0 1-.865-.865v-1.73a.865.865 0 0 1 .865-.864h2.162a.865.865 0 0 1 .865.864v1.73a.865.865 0 0 1-.865.865Zm-2.162-2.595v1.73h2.162v-1.73h-2.162ZM20.215 17.226h-2.162a.865.865 0 0 1-.864-.865v-1.73a.865.865 0 0 1 .864-.864h2.162a.865.865 0 0 1 .865.864v1.73a.865.865 0 0 1-.864.865Zm-2.162-2.595v1.73h2.162v-1.73h-2.162ZM13.946 17.226h-2.162a.865.865 0 0 1-.865-.865v-1.73a.865.865 0 0 1 .865-.864h2.162a.865.865 0 0 1 .865.864v1.73a.865.865 0 0 1-.865.865Zm-2.162-2.595v1.73h2.162v-1.73h-2.162ZM26.486 22.415h-2.162a.865.865 0 0 1-.865-.865v-1.73a.865.865 0 0 1 .865-.864h2.162a.865.865 0 0 1 .865.865v1.73a.865.865 0 0 1-.865.864Zm-2.162-2.594v1.73h2.162v-1.73h-2.162ZM20.215 22.415h-2.162a.865.865 0 0 1-.864-.865v-1.73a.865.865 0 0 1 .864-.864h2.162a.865.865 0 0 1 .865.865v1.73a.865.865 0 0 1-.864.864Zm-2.162-2.594v1.73h2.162v-1.73h-2.162ZM13.946 22.415h-2.162a.865.865 0 0 1-.865-.865v-1.73a.865.865 0 0 1 .865-.864h2.162a.865.865 0 0 1 .865.865v1.73a.865.865 0 0 1-.865.864Zm-2.162-2.594v1.73h2.162v-1.73h-2.162ZM7.675 22.415H5.513a.865.865 0 0 1-.865-.865v-1.73a.865.865 0 0 1 .865-.864h2.162a.865.865 0 0 1 .865.865v1.73a.865.865 0 0 1-.865.864Zm-2.162-2.594v1.73h2.162v-1.73H5.513ZM20.215 27.604h-2.162a.865.865 0 0 1-.864-.865v-1.73a.865.865 0 0 1 .864-.864h2.162a.865.865 0 0 1 .865.865v1.73a.865.865 0 0 1-.864.864Zm-2.162-2.594v1.73h2.162v-1.73h-2.162ZM13.946 27.604h-2.162a.865.865 0 0 1-.865-.865v-1.73a.865.865 0 0 1 .865-.864h2.162a.865.865 0 0 1 .865.865v1.73a.865.865 0 0 1-.865.864Zm-2.162-2.594v1.73h2.162v-1.73h-2.162ZM7.675 27.604H5.513a.865.865 0 0 1-.865-.865v-1.73a.865.865 0 0 1 .865-.864h2.162a.865.865 0 0 1 .865.865v1.73a.865.865 0 0 1-.865.864ZM5.513 25.01v1.73h2.162v-1.73H5.513Z"/></g><defs><clipPath id="a"><path fill="#fff" d="M0 0h32v32H0z"/></clipPath></defs></svg>