<svg xmlns="http://www.w3.org/2000/svg" width="32" height="32" fill="none"><g fill="#212121" clip-path="url(#a)" opacity=".8"><path d="M16 9.6a2.133 2.133 0 0 0-2.134 2.133v18.134a2.133 2.133 0 1 0 4.267 0V11.733A2.133 2.133 0 0 0 16 9.6Zm1.066 20.267a1.067 1.067 0 1 1-2.133 0V11.733a1.067 1.067 0 1 1 2.133 0v18.134ZM9.067 16a2.133 2.133 0 0 0-2.133 2.133v11.734a2.133 2.133 0 0 0 4.266 0V18.133A2.133 2.133 0 0 0 9.067 16Zm1.067 13.867a1.067 1.067 0 1 1-2.134 0V18.133a1.067 1.067 0 1 1 2.134 0v11.734ZM2.133 23.467A2.133 2.133 0 0 0 0 25.6v4.267a2.133 2.133 0 0 0 4.267 0V25.6a2.133 2.133 0 0 0-2.134-2.133Zm1.067 6.4a1.067 1.067 0 1 1-2.133 0V25.6a1.067 1.067 0 1 1 2.133 0v4.267ZM22.933 3.2A2.133 2.133 0 0 0 20.8 5.333v24.534a2.133 2.133 0 1 0 4.267 0V5.333A2.133 2.133 0 0 0 22.933 3.2ZM24 29.867a1.067 1.067 0 1 1-2.134 0V5.333a1.067 1.067 0 1 1 2.134 0v24.534ZM29.867 0a2.133 2.133 0 0 0-2.134 2.133v27.734a2.133 2.133 0 1 0 4.267 0V2.133A2.133 2.133 0 0 0 29.867 0Zm1.066 29.867a1.067 1.067 0 1 1-2.133 0V2.133a1.067 1.067 0 1 1 2.133 0v27.734Z"/></g><defs><clipPath id="a"><path fill="#fff" d="M0 0h32v32H0z"/></clipPath></defs></svg>