<svg xmlns="http://www.w3.org/2000/svg" width="32" height="32" fill="none"><g fill="#313131" clip-path="url(#a)" opacity=".8"><path d="M16 32a16 16 0 1 1 16-16 16.018 16.018 0 0 1-16 16ZM16 .914A15.086 15.086 0 1 0 31.086 16 15.103 15.103 0 0 0 16 .914Z"/><path d="M16 5.748a.432.432 0 0 1-.433-.432v-.884a.432.432 0 1 1 .865 0v.884a.432.432 0 0 1-.432.432ZM16 28.748a.432.432 0 0 1-.433-.432v-.884a.432.432 0 1 1 .865 0v.884a.433.433 0 0 1-.432.432ZM23.432 9.495a.432.432 0 0 1-.305-.738l.624-.625a.432.432 0 1 1 .611.611l-.624.625a.433.433 0 0 1-.306.127ZM7.432 24.484a.432.432 0 0 1-.305-.738l.624-.625a.432.432 0 0 1 .612.612l-.625.625a.432.432 0 0 1-.306.126ZM28.316 16.432h-.884a.432.432 0 1 1 0-.864h.884a.432.432 0 1 1 0 .864ZM4.316 16.432h-.884a.432.432 0 1 1 0-.864h.884a.432.432 0 1 1 0 .864ZM25.052 23.484a.433.433 0 0 1-.306-.126l-.625-.625a.432.432 0 0 1 .612-.612l.624.625a.433.433 0 0 1-.305.738ZM8.062 9.495a.432.432 0 0 1-.306-.127l-.624-.625a.432.432 0 1 1 .611-.611l.625.625a.433.433 0 0 1-.306.738ZM13.658 17.297a.433.433 0 0 1-.15-.838l2.06-.762V9.946a.432.432 0 0 1 .865 0V16a.433.433 0 0 1-.282.406l-2.343.864a.436.436 0 0 1-.15.027Z"/></g><defs><clipPath id="a"><path fill="#fff" d="M0 0h32v32H0z"/></clipPath></defs></svg>